<?xml version="1.0" encoding="UTF-8" standalone="no" ?>
<!DOCTYPE svg PUBLIC "-//W3C//DTD SVG 1.1//EN" "http://www.w3.org/Graphics/SVG/1.1/DTD/svg11.dtd">
<svg xmlns="http://www.w3.org/2000/svg" xmlns:xlink="http://www.w3.org/1999/xlink" version="1.1" width="400" height="200" viewBox="0 0 1280 661.8546375494111" xml:space="preserve">
<desc>Created with Fabric.js 5.3.0</desc>
<defs>
</defs>
<g transform="matrix(1 0 0 1 640 330.92731877470555)" id="background-logo"  >
<rect style="stroke: none; stroke-width: 0; stroke-dasharray: none; stroke-linecap: butt; stroke-dashoffset: 0; stroke-linejoin: miter; stroke-miterlimit: 4; fill: rgb(255,255,255); fill-opacity: 0; fill-rule: nonzero; opacity: 1;"  paint-order="stroke"  x="-715.7376178600954" y="-572.5900942880763" rx="0" ry="0" width="1431.4752357201908" height="1145.1801885761527" />
</g>
<g transform="matrix(2.2022695934156777 0 0 2.2022695934156777 653.4379695755431 331)" id="logo-logo"  >
<g style=""  paint-order="stroke"   >
		<g transform="matrix(1.8856788733712393 0 0 1.8856788733712393 0 22.814409834335493)"  >
<g style=""  paint-order="stroke"   >
		<g transform="matrix(1 0 0 1 -2.7230624979484475 -0.16171996344847628)"  >
<path style="stroke: none; stroke-width: 0; stroke-dasharray: none; stroke-linecap: butt; stroke-dashoffset: 0; stroke-linejoin: miter; stroke-miterlimit: 4; fill: rgb(4,13,54); fill-rule: nonzero; opacity: 1;"  paint-order="stroke"  transform=" translate(-122.27692750205156, -48.42725321718755)" d="M 237.79675 77.84784 L 237.05529 81.4303 C 237.05529 81.4303 238.11456 91.88983 232.07134000000002 93.62 C 226.18285000000003 95.30665 220.22924000000003 96.36048000000001 214.21044 96.85212 C 211.46453 97.07484 205.33709000000002 81.63398 205.33709000000002 81.63398 C 205.33709000000002 81.63398 199.58721000000003 97.02319999999999 196.39037000000002 96.74073 C 190.51275 96.21925 184.57549000000003 95.24421 178.57299 93.87257 Q 178.57299 93.86988 178.5703 93.86713999999999 L 178.5703 93.87257 C 178.19274000000001 93.77754 169.63713 79.37422 169.63713 79.37422 C 169.63713 79.37422 166.29637000000002 90.39058 160.69859000000002 88.43500999999999 C 154.76396000000003 86.36811999999999 148.81309000000002 84.06757999999999 142.84318000000002 81.65845999999999 C 139.72782 80.40088999999999 135.31968 66.76087999999999 135.31968 66.76087999999999 C 135.31968 66.76087999999999 127.82877 75.46039999999999 124.99864000000001 74.27888999999999 C 119.06676000000002 71.80189999999999 113.11857 69.33564999999999 107.15410000000001 66.99714999999999 C 104.06597000000001 65.78578999999999 100.35307000000002 52.66718999999999 100.35307000000002 52.66718999999999 C 100.35307000000002 52.66718999999999 92.15599000000002 61.43732999999999 89.28782000000001 60.49488999999999 C 83.30161000000001 58.52302999999999 77.30460000000001 56.79291999999999 71.29392000000001 55.42127999999999 C 68.49912000000002 54.783039999999986 66.02475000000001 44.17676999999999 66.02475000000001 44.17676999999999 C 66.02475000000001 44.17676999999999 56.59464000000001 52.79755999999999 53.43851000000001 52.50696999999999 C 47.446870000000004 51.95557999999999 41.447120000000005 51.87140999999999 35.43918000000001 52.365729999999985 C 32.522130000000004 52.604739999999985 30.400850000000005 46.02099999999999 30.400850000000005 46.02099999999999 C 30.400850000000005 46.02099999999999 20.650180000000006 54.74499999999999 17.629980000000003 55.61956999999999 C 11.757850000000003 57.32250999999999 5.883030000000003 59.67736999999999 -0.000019999999995690132 62.79266999999999 C 1.8931100000000043 59.166749999999986 3.7861700000000043 55.540779999999984 5.681990000000004 51.91485999999999 C 6.9476800000000045 49.49212999999999 17.556620000000002 42.93554999999999 17.556620000000002 42.93554999999999 C 17.556620000000002 42.93554999999999 10.733870000000003 42.24023999999999 11.361310000000003 41.039739999999995 L 11.364000000000003 41.039739999999995 L 11.366750000000003 41.036989999999996 C 13.257130000000004 37.411069999999995 15.150200000000003 33.787839999999996 17.043260000000004 30.161869999999993 C 17.043260000000004 30.161869999999993 17.046010000000003 30.161869999999993 17.046010000000003 30.159179999999992 C 18.939080000000004 26.53325999999999 23.187060000000002 24.57763999999999 25.080130000000004 20.951719999999995 L 28.138420000000004 21.899659999999994 C 28.230770000000003 21.834409999999995 29.523610000000005 20.384099999999993 29.615960000000005 20.318909999999995 C 34.22241 17.062319999999996 32.31573 13.088749999999996 37.123160000000006 10.823549999999996 C 41.90343000000001 8.569219999999996 46.781490000000005 6.787479999999996 51.75188000000001 5.445739999999995 C 54.15831000000001 4.793879999999995 56.513110000000005 12.722049999999996 56.513110000000005 12.722049999999996 C 56.513110000000005 12.722049999999996 63.95781 2.993109999999996 66.45122 2.7377999999999965 C 71.26952 2.2380399999999963 76.16655 2.0941199999999967 81.14238 2.2733799999999964 C 83.90465 2.3684099999999964 86.02415 13.954529999999997 86.02415 13.954529999999997 L 92.9152 10.041319999999997 C 92.9152 10.041319999999997 95.66514 3.6449599999999975 95.77927 3.6612499999999972 C 100.68984999999999 4.402769999999997 105.56791 5.323479999999997 110.42423 6.333859999999998 C 112.78994999999999 6.825499999999998 115.8754 20.783319999999996 115.8754 20.783319999999996 C 115.8754 20.783319999999996 122.54605 8.998349999999997 125.05844 9.571409999999997 C 129.90109 10.676879999999997 134.74386 11.782289999999996 139.60019 12.803529999999997 C 142.16147 13.341309999999996 146.08071999999999 30.254209999999993 146.08071999999999 30.254209999999993 C 146.08071999999999 30.254209999999993 151.91207999999997 15.155639999999993 154.22890999999998 15.511469999999994 C 159.05807 16.261099999999995 163.91983 16.839589999999994 168.83047 17.162839999999996 C 168.83047 17.165529999999997 168.83316 17.165529999999997 168.83316 17.165529999999997 L 168.83316 17.162839999999996 C 168.99881 17.168209999999995 178.65445 33.14684999999999 178.65445 33.14684999999999 C 178.65445 33.14684999999999 178.88535 17.192689999999992 183.48636 16.720089999999992 C 188.42954 16.21221999999999 193.23971999999998 15.332149999999992 197.93850999999998 14.063779999999992 C 200.22544 13.447199999999992 207.15952 26.630979999999994 207.15952 26.630979999999994 C 207.15952 26.630979999999994 210.00596 9.889219999999995 212.59707999999998 8.661499999999993 C 217.60824999999997 6.2904099999999925 222.49442 3.408689999999993 227.27468999999996 -7.105427357601002e-15 C 229.16775999999996 7.197569999999993 231.06087999999997 14.395139999999992 232.95669999999996 21.592709999999993 C 234.02413999999996 25.64775999999999 224.07241999999997 37.671809999999994 224.07241999999997 37.671809999999994 C 224.07241999999997 37.671809999999994 237.81301999999997 40.04021999999999 238.63869999999997 43.17999 C 238.63326999999998 43.18541999999999 238.63057999999998 43.18541999999999 238.62514999999996 43.19085 C 238.63057999999995 43.1881 238.63326999999995 43.1881 238.63869999999997 43.18542 C 240.53182999999999 50.38024 242.42763999999997 57.57782 244.32070999999996 64.7727 C 246.21377999999996 71.97027 235.90090999999995 70.65295 237.79671999999997 77.84783 Z" stroke-linecap="round" />
</g>
		<g transform="matrix(1 0 0 1 2.8404349999999994 1.136685000000007)"  >
<linearGradient id="SVGID_850429" gradientUnits="userSpaceOnUse" gradientTransform="matrix(1 0 0 1 5.680850000000007 2.27337)"  x1="122.15957499999999" y1="0" x2="122.15957500000002" y2="94.90457636127206">
<stop offset="53.51111602783208%" style="stop-color:rgb(101,214,117);stop-opacity: 1"/>
<stop offset="100%" style="stop-color:rgb(27,206,223);stop-opacity: 1"/>
</linearGradient>
<path style="stroke: none; stroke-width: 0; stroke-dasharray: none; stroke-linecap: butt; stroke-dashoffset: 0; stroke-linejoin: miter; stroke-miterlimit: 4; fill: url(#SVGID_850429); fill-rule: nonzero; opacity: 1;"  paint-order="stroke"  transform=" translate(-127.84042500000001, -49.72565818063603)" d="M 222.40332 51.44678 C 220.77997000000002 44.36475 219.15662 37.28272 217.53339 30.200749999999996 C 222.95331 27.738469999999996 227.99689 24.891969999999997 232.9552 21.592109999999998 C 234.84905999999998 28.78913 236.74303999999998 35.986149999999995 238.63696 43.18317 C 233.40265 46.409369999999996 228.09894 49.139289999999995 222.40331999999998 51.44678 Z M 222.40356 51.44788 C 217.06561 53.37397 211.74939 54.810919999999996 206.16998 55.82685 C 207.52270000000001 62.72901 208.87549 69.63111 210.22821000000002 76.53327 C 204.51654000000002 77.10908 198.91071000000002 77.2367 193.18268 76.97596 C 194.25018 83.56239 195.32025000000002 90.1543 196.39038 96.74073 C 202.39288 97.27308 208.33288 97.33015 214.21044999999998 96.85212 C 212.88239 90.08125 211.55701 83.30775 210.22887999999998 76.53419 C 216.06957999999997 75.73011 221.64849999999998 74.47358 227.27361999999997 72.69391999999999 C 225.65026999999998 65.61195 224.02691999999996 58.52991999999999 222.40355999999997 51.44788999999999 Z M 244.31799 64.77539 C 238.80713 67.92602000000001 233.24188 70.54156 227.27472 72.69269 C 228.87183 79.67029 230.47156 86.6424 232.07135 93.62 C 238.11455999999998 91.88984 244.0899 89.49701 250 86.36536000000001 C 248.10693 79.16779000000001 246.21381 71.97028 244.31799 64.77539000000002 Z M 186.6886 36.96021 C 185.62933 30.419929999999997 184.54834 23.284789999999994 183.48639 16.720099999999995 C 178.88538 17.192699999999995 174.17023 17.342049999999993 169.33026 17.179149999999996 C 169.16455000000002 17.176399999999997 168.99884 17.170969999999997 168.83319 17.165539999999996 C 169.64258 23.55916 170.45471 29.950019999999995 171.26678 36.34363999999999 C 176.42462 36.82166999999999 181.51178000000002 37.04169999999999 186.68859 36.96021999999999 Z M 189.93573 56.96753 C 195.35663 57.082519999999995 200.81903 56.69849 206.16931 55.82581 C 204.81653 48.923469999999995 203.46374 42.021 202.11102 35.1186 C 207.42895 34.01862 212.5213 32.25593 217.53222 30.1999 C 215.99761 23.50209 214.16699 15.497869999999999 212.59709999999998 8.66151 C 207.83043999999998 10.91859 202.94964 12.713940000000001 197.93853 14.063790000000001 C 199.25035999999997 20.736890000000002 200.82835999999998 28.583440000000003 202.11028 35.11805 C 196.97368 36.09907 191.91436 36.694829999999996 186.68902 36.96075999999999 C 187.77123 43.629639999999995 188.85351 50.29858999999999 189.93572 56.96753 Z M 173.70221 55.52045 C 174.51392 61.91271999999999 175.32562000000001 68.30499999999999 176.13727 74.69721 C 181.80029 75.76655 187.43347 76.54377 193.18262 76.97541 L 189.93597999999997 56.96857 C 184.50592999999998 56.87873 179.06488999999996 56.37732 173.70221999999998 55.52045 Z M 155.84473 33.88013 C 156.38587 39.963080000000005 156.92688 46.04596 157.46808 52.128910000000005 C 162.84778 53.46186 168.2334 54.60871 173.70165999999998 55.51935 C 172.88994999999997 49.12695 172.07824999999997 42.73456 171.26653999999996 36.3421 C 166.08135999999996 35.72345 160.96886999999995 34.88965 155.84490999999997 33.87939 C 155.31804999999997 27.94488 154.75585999999998 21.46752 154.22893999999997 15.51147 C 149.32640999999995 14.75634 144.45653999999996 13.822019999999998 139.60021999999998 12.803519999999999 C 139.86364999999998 18.436639999999997 140.15972999999997 24.58306 140.42315999999997 30.186329999999998 C 145.52929999999998 31.55248 150.66796999999997 32.80999 155.84472999999997 33.88012 Z M 159.09143 70.37885 C 158.55029 64.29584 158.00928 58.2129 157.46814 52.12989 C 152.01544 50.698310000000006 146.6167 49.11994 141.23444 47.44453 C 141.50495 53.19709 141.77552 58.94966 142.04602 64.70228 C 147.69275 66.71101 153.36078 68.62019000000001 159.09076 70.37922 C 159.62586 76.39777000000001 160.16357 82.41914 160.69861 88.43501 C 166.29639 90.39058 171.87793 92.13972000000001 177.44043 93.58467 C 177.81798999999998 93.68245 178.19275 93.77754 178.57031 93.87257 L 178.57031 93.86713999999999 C 177.76086 87.47895999999999 176.94879 81.08533999999999 176.13666 74.69716 C 170.38703 73.48317 164.73242000000002 72.02741999999999 159.09143 70.37886 Z M 125.00012 25.87726 C 125.00005999999999 31.28839 125.00005999999999 36.699529999999996 125.00005999999999 42.110659999999996 C 130.40143 43.91967999999999 135.8064 45.71386999999999 141.23389 47.443479999999994 C 140.96332 41.690729999999995 140.69281 35.93804999999999 140.42224000000002 30.185299999999994 C 135.26459000000003 28.810849999999995 130.13098000000002 27.347899999999996 125.00012000000001 25.877259999999993 Z M 124.99994 58.34424 C 125.00005999999999 52.93335 125.00005999999999 47.522459999999995 125.00005999999999 42.111509999999996 C 119.59862999999999 40.30249 114.19366 38.5083 108.76616999999999 36.778749999999995 C 108.49565999999999 41.84844999999999 108.22509 46.91815 107.95445999999998 51.98786 C 102.30540999999998 49.978089999999995 96.63719999999998 48.06885 90.90941999999998 46.311589999999995 C 90.36882999999999 51.03753999999999 89.82836999999998 55.76617999999999 89.28783999999999 60.494879999999995 C 95.25774999999999 62.45862999999999 101.21141999999999 64.66400999999999 107.15410999999999 66.99714 C 107.42027999999999 61.994150000000005 107.68645999999998 56.98847 107.95531999999999 51.98823 C 113.65514999999999 54.05787 119.32909999999998 56.193670000000004 124.99864999999998 58.34449 L 124.99864999999998 74.27888 C 130.96307 76.7668 136.91131 79.26557 142.84319 81.65846 C 142.57708 76.00630000000001 142.3109 70.3542 142.04467 64.7021 C 136.34405 62.63264 130.67065 60.49519 124.99992999999999 58.34425 Z M 95.7793 3.66125 L 95.7793 3.65856 C 95.66516 3.64226 95.5484 3.62597 95.43433 3.60967 C 93.45429 3.32988 91.47699 3.07732 89.49701 2.8600399999999997 C 86.68860000000001 2.5667099999999996 83.90466 2.3684 81.14240000000001 2.27337 C 80.33844 6.65167 79.53724000000001 11.03265 78.73328000000001 15.41094 C 83.91822 16.0302 89.03254000000001 16.864 94.15509 17.87444 C 94.69556 13.134879999999999 95.23877 8.40081 95.7793 3.6612399999999994 Z M 94.15546 17.87524 C 93.61432 22.614310000000003 93.07325 27.35339 92.53205 32.092530000000004 C 97.98456 33.523990000000005 103.38325 35.10230000000001 108.76581 36.777770000000004 C 109.03638000000001 31.708010000000005 109.30695 26.638180000000006 109.57758 21.568420000000003 C 114.73786 22.940000000000005 119.86829 24.406620000000004 125.00135 25.875920000000004 C 125.00135 20.604070000000004 125.05567 14.867740000000005 125.05848 9.571420000000003 C 120.18848 8.460580000000004 115.31593000000001 7.349680000000003 110.42426 6.333870000000003 C 110.16083 11.277050000000003 109.84034 16.654790000000002 109.57691 21.568060000000003 C 104.47053 20.207220000000003 99.33362 18.934940000000005 94.15546 17.87525 Z M 73.86316 41.99298 C 79.61316 43.206050000000005 85.26776 44.66217 90.90868999999999 46.310550000000006 C 91.44976999999999 41.57148000000001 91.9909 36.83234 92.53197999999999 32.09326000000001 C 87.15142999999999 30.760130000000007 81.76580999999999 29.613340000000008 76.29814999999999 28.702880000000007 C 75.48649999999999 33.13287000000001 74.67479999999999 37.56293000000001 73.86314999999999 41.99298000000001 Z M 60.06409 27.25409 C 65.49482 27.32056 70.93512 27.864620000000002 76.29785 28.702090000000002 C 77.10943 24.271910000000002 77.92114 19.84174 78.73285 15.411620000000003 C 73.57874 14.931820000000002 68.48962 14.711670000000003 63.311589999999995 14.794010000000004 C 64.35718 10.777100000000004 65.40558 6.7547600000000045 66.45124 2.7378000000000036 C 61.464549999999996 3.2511700000000037 56.564769999999996 4.142040000000003 51.7519 5.445750000000004 C 50.46449 9.174880000000003 49.17707 12.906750000000004 47.88966 16.635940000000005 C 53.02809 15.655470000000005 58.08802 15.060740000000004 63.31062 14.794450000000005 C 62.22847 18.947710000000004 61.14625 23.100910000000006 60.0641 27.254110000000004 Z M 60.0639 27.25476 C 54.646539999999995 27.1654 49.17724 27.495060000000002 43.830259999999996 28.39654 L 39.77191 40.15612 C 45.47943 39.58135 51.0849 39.45391 56.817139999999995 39.7149 C 55.779729999999994 43.70471 54.495059999999995 48.45745 53.438539999999996 52.50695 C 59.40033 53.055600000000005 65.35395 54.06322 71.29395 55.421260000000004 C 72.08435999999999 51.14349 73.09197999999999 46.19751 73.86335 41.99304000000001 C 68.1977 40.92291000000001 62.56458 40.14612000000001 56.817449999999994 39.714290000000005 C 57.89959999999999 35.56109000000001 58.981759999999994 31.407950000000007 60.06390999999999 27.254760000000005 Z M 37.12317 10.82355 C 32.315740000000005 13.08875 27.60883 15.831969999999998 23.002380000000002 19.0885 C 22.910030000000003 19.15369 22.81763 19.22156 22.72528 19.286739999999998 C 20.83221 22.91272 18.93909 26.53326 17.046020000000002 30.15918 C 22.002810000000004 26.864559999999997 27.04388 24.01813 32.465090000000004 21.55469 C 34.01868 17.97766 35.57233 14.400580000000001 37.12317 10.823550000000001 Z M 27.59637 32.77521 C 32.9309 30.850340000000003 38.24749 29.4126 43.82995 28.396060000000002 C 45.18279 24.476080000000003 46.535579999999996 20.556160000000002 47.888419999999996 16.63617 C 42.56756 17.76654 37.489799999999995 19.49487 32.4663 21.554380000000002 C 30.843009999999996 25.294610000000002 29.219659999999998 29.034910000000004 27.596369999999997 32.77521 Z M 27.59607 32.77582 C 21.897640000000003 35.084540000000004 16.59308 37.81568 11.362490000000001 41.03967 C 9.468570000000001 44.66516 7.574710000000001 48.29065 5.680850000000001 51.91613 C 11.188660000000002 48.76598 16.75336 46.151050000000005 22.726080000000003 43.996700000000004 C 24.34943 40.256400000000006 25.972780000000004 36.516110000000005 27.596080000000004 32.77581000000001 Z M 17.63 55.61957 C 23.572689999999998 53.900270000000006 29.51007 52.851870000000005 35.4392 52.36572 C 36.77282 48.50891 38.45403 43.970330000000004 39.77129 40.156980000000004 C 33.92638 40.96094000000001 28.34758 42.218500000000006 22.725270000000002 43.9975 C 21.155450000000002 47.61804 19.224290000000003 51.95288 17.629990000000003 55.61957 Z" stroke-linecap="round" />
</g>
</g>
</g>
		<g transform="matrix(-0.046196839094134814 -0.376243061460035 1.2717248330127755 -0.15614817521079258 -100.62503769716412 88.45835210521955)"  >
<g style=""  paint-order="stroke"   >
		<g transform="matrix(1 0 0 1 0 0)"  >
<linearGradient id="SVGID_850430" gradientUnits="userSpaceOnUse" gradientTransform="matrix(1 0 0 1 0 0.00000275284472195381)"  x1="125.00000430177133" y1="0" x2="125.00000430177133" y2="189.7013172471553">
<stop offset="0%" style="stop-color:rgb(94,37,99);stop-opacity: 1"/>
<stop offset="83.37777709960938%" style="stop-color:rgb(16,99,239);stop-opacity: 1"/>
</linearGradient>
<path style="stroke: none; stroke-width: 1; stroke-dasharray: none; stroke-linecap: butt; stroke-dashoffset: 0; stroke-linejoin: miter; stroke-miterlimit: 4; fill: url(#SVGID_850430); fill-rule: nonzero; opacity: 1;"  paint-order="stroke"  transform=" translate(-125.00000430177133, -94.85066137642237)" d="M 0 189.70132 C 48.96651 182.86694 97.07834 168.06778 141.94574 148.37097 C 181.31461000000002 131.08801 240.50256000000002 97.12634 249.0842 50.429410000000004 C 257.92337000000003 2.330930000000002 200.68826 -1.487729999999999 167.36069 0.3513200000000012 C 186.76432 4.671880000000002 202.08499 17.87958 205.55866 38.58011 C 215.30901 96.68555 83.0238 169.30063 0 189.70132 z" stroke-linecap="round" />
</g>
</g>
</g>
		<g transform="matrix(0.14258401280441252 0.24696275452429378 -0.7488862540518114 0.4323696803692239 106.7298713659672 -78.41859978282415)"  >
<g style=""  paint-order="stroke"   >
		<g transform="matrix(1 0 0 1 0 0)"  >
<linearGradient id="SVGID_850431" gradientUnits="userSpaceOnUse" gradientTransform="matrix(1 0 0 1 0 0.00000275284472195381)"  x1="125.00000430177133" y1="0" x2="125.00000430177133" y2="189.7013172471553">
<stop offset="0%" style="stop-color:rgb(94,37,99);stop-opacity: 1"/>
<stop offset="83.37777709960938%" style="stop-color:rgb(16,99,239);stop-opacity: 1"/>
</linearGradient>
<path style="stroke: none; stroke-width: 1; stroke-dasharray: none; stroke-linecap: butt; stroke-dashoffset: 0; stroke-linejoin: miter; stroke-miterlimit: 4; fill: url(#SVGID_850431); fill-rule: nonzero; opacity: 1;"  paint-order="stroke"  transform=" translate(-125.00000430177133, -94.85066137642237)" d="M 0 189.70132 C 48.96651 182.86694 97.07834 168.06778 141.94574 148.37097 C 181.31461000000002 131.08801 240.50256000000002 97.12634 249.0842 50.429410000000004 C 257.92337000000003 2.330930000000002 200.68826 -1.487729999999999 167.36069 0.3513200000000012 C 186.76432 4.671880000000002 202.08499 17.87958 205.55866 38.58011 C 215.30901 96.68555 83.0238 169.30063 0 189.70132 z" stroke-linecap="round" />
</g>
</g>
</g>
</g>
</g>
<g transform="matrix(2.202269593415678 0 0 2.202269593415678 640.1405625391118 340.08137565463664)" id="text-logo"  >
<g style=""  paint-order="stroke"   >
		<g transform="matrix(1 0 0 1 5.684342e-14 0)" id="text-logo-path-0"  >
<path style="stroke: rgb(4,13,54); stroke-width: 9.902323524044956; stroke-dasharray: none; stroke-linecap: butt; stroke-dashoffset: 0; stroke-linejoin: miter; stroke-miterlimit: 4; fill: rgb(255,255,255); fill-rule: nonzero; opacity: 1;"  paint-order="stroke"  transform=" translate(-289.0119531250001, 24.535)" d="M 4.76 0 L 11.76 0 L 18.97 -40.95 L 16.73 -42 L 26.88 -42 L 28.14 -49 L 3.29 -49 L 5.53 -47.95 L 4.48 -42 L 12.18 -42 Z M 25.76 0 L 32.76 0 L 35.98 -18.48 L 33.74 -19.53 L 40.6 -19.53 L 41.16 0 L 48.16 0 L 47.6 -19.53 L 48.09 -19.53 C 50.12 -19.53 51.87 -21 52.22 -23.03 L 52.36 -23.66 L 55.86 -43.47 L 55.93 -44.03 C 56.49 -46.97 54.74 -49.07 51.8 -49.07 L 31.99 -49 L 34.23 -47.95 Z M 37.45 -26.53 L 39.97 -41.02 L 37.73 -42.07 L 48.58 -42.07 L 45.85 -26.53 Z M 71.96 0 L 78.96 0 L 79.24 -49 L 68.39 -49 L 70.49 -47.95 L 53.76 0 L 60.76 0 L 62.72 -5.95 L 60.62 -7 L 63.7 -7 L 72.1 -7 Z M 65.45 -14 L 72.66 -35.63 L 72.24 -14 Z M 89.6 0 L 104.16 0 L 105.42 -7 L 92.82 -7 L 98.77 -40.95 L 96.53 -42 L 111.58 -42 L 112.84 -49 L 98.28 -49 C 95.34 -49 92.82 -46.9 92.33 -43.96 L 92.26 -43.4 L 85.61 -5.88 L 85.47 -5.04 C 84.98 -2.1 86.66 0 89.6 0 Z M 110.46 0 L 117.46 0 L 120.05 -14.56 L 121.66 -17.08 L 126.56 0 L 134.26 0 L 126.7 -24.64 L 142.94 -49 L 135.24 -49 L 122.71 -29.54 L 126.14 -49 L 116.69 -49 L 118.93 -47.95 Z M 139.86 0 L 157.22 0 C 160.16 0 162.68 -2.1 163.17 -5.04 L 163.24 -5.6 L 169.89 -43.12 L 170.03 -43.96 C 170.52 -46.9 168.84 -49 165.9 -49 L 146.09 -49 L 148.33 -47.95 Z M 148.12 -7 L 154.07 -40.95 L 151.83 -42 L 162.68 -42 L 156.52 -7 Z M 173.6 0 L 185.92 0 C 188.86 0 191.38 -2.1 191.87 -5.04 L 191.94 -5.6 L 198.59 -43.12 L 198.73 -43.96 C 199.22 -46.9 197.54 -49 194.6 -49 L 182.28 -49 C 179.34 -49 176.82 -46.9 176.33 -43.96 L 176.26 -43.4 L 169.61 -5.88 L 169.47 -5.04 C 168.98 -2.1 170.66 0 173.6 0 Z M 176.82 -7 L 182.77 -40.95 L 180.53 -42 L 191.38 -42 L 185.22 -7 Z M 202.3 0 L 214.62 0 C 217.56 0 220.08 -2.1 220.57 -5.04 L 220.64 -5.6 L 224.49 -27.3 L 213.22 -27.3 L 211.96 -20.3 L 216.23 -20.3 L 213.92 -7 L 205.52 -7 L 211.47 -40.95 L 209.23 -42 L 225.68 -42 L 226.94 -49 L 210.98 -49 C 208.04 -49 205.52 -46.9 205.03 -43.96 L 204.96 -43.4 L 198.31 -5.88 L 198.17 -5.04 C 197.68 -2.1 199.36 0 202.3 0 Z M 272.86 0 L 279.79 0 L 288.54 -49 L 280.91 -49 L 263.83 -12.18 L 259.77 -49 L 249.69 -49 L 251.93 -47.95 L 243.53 0 L 250.46 0 L 255.22 -27.09 L 258.16 0 L 265.16 0 L 277.76 -27.09 Z M 291.2 0 L 303.52 0 C 306.46 0 308.98 -2.1 309.47 -5.04 L 309.54 -5.6 L 316.19 -43.12 L 316.33 -43.96 C 316.82 -46.9 315.14 -49 312.2 -49 L 299.88 -49 C 296.94 -49 294.42 -46.9 293.93 -43.96 L 293.86 -43.4 L 287.21 -5.88 L 287.07 -5.04 C 286.58 -2.1 288.26 0 291.2 0 Z M 294.42 -7 L 300.37 -40.95 L 298.13 -42 L 308.98 -42 L 302.82 -7 Z M 322.56 0 L 329.56 0 L 336.77 -40.95 L 334.53 -42 L 344.68 -42 L 345.94 -49 L 321.09 -49 L 323.33 -47.95 L 322.28 -42 L 329.98 -42 Z M 348.6 0 L 360.92 0 C 363.86 0 366.38 -2.1 366.87 -5.04 L 366.94 -5.6 L 373.59 -43.12 L 373.73 -43.96 C 374.22 -46.9 372.54 -49 369.6 -49 L 357.28 -49 C 354.34 -49 351.82 -46.9 351.33 -43.96 L 351.26 -43.4 L 344.61 -5.88 L 344.47 -5.04 C 343.98 -2.1 345.66 0 348.6 0 Z M 351.82 -7 L 357.77 -40.95 L 355.53 -42 L 366.38 -42 L 360.22 -7 Z M 372.26 0 L 379.26 0 L 382.48 -18.48 L 380.24 -19.53 L 387.1 -19.53 L 387.66 0 L 394.66 0 L 394.1 -19.53 L 394.59 -19.53 C 396.62 -19.53 398.37 -21 398.72 -23.03 L 398.86 -23.66 L 402.36 -43.47 L 402.43 -44.03 C 402.99 -46.97 401.24 -49.07 398.3 -49.07 L 378.49 -49 L 380.73 -47.95 Z M 383.95 -26.53 L 386.47 -41.02 L 384.23 -42.07 L 395.08 -42.07 L 392.35 -26.53 Z M 406 0 L 418.32 0 C 421.26 0 423.78 -2.1 424.27 -5.04 L 426.23 -16.1 L 414.12 -35 L 415.17 -40.95 L 412.93 -42 L 423.78 -42 L 422.52 -35 L 429.52 -35 L 431.13 -43.96 C 431.69 -46.9 429.94 -49 427 -49 L 414.68 -49 C 411.74 -49 409.22 -46.9 408.73 -43.96 L 406.77 -32.9 L 418.88 -14 L 417.62 -7 L 409.22 -7 L 410.48 -14 L 403.48 -14 L 401.94 -5.6 L 401.87 -5.04 C 401.38 -2.1 403.06 0 406 0 Z M 428.96 0 L 435.96 0 L 439.18 -18.48 L 436.94 -19.53 L 450.45 -19.53 C 453.39 -19.53 455.91 -21.63 456.4 -24.57 L 456.54 -25.13 L 459.76 -43.4 L 459.83 -43.96 C 460.32 -46.9 458.64 -49 455.7 -49 L 435.19 -49 L 437.43 -47.95 Z M 440.65 -26.53 L 443.17 -40.95 L 440.93 -42 L 452.48 -42 L 449.75 -26.46 Z M 463.4 0 L 475.72 0 C 478.66 0 481.18 -2.1 481.67 -5.04 L 481.74 -5.6 L 488.39 -43.12 L 488.53 -43.96 C 489.02 -46.9 487.34 -49 484.4 -49 L 472.08 -49 C 469.14 -49 466.62 -46.9 466.13 -43.96 L 466.06 -43.4 L 459.41 -5.88 L 459.27 -5.04 C 458.78 -2.1 460.46 0 463.4 0 Z M 466.62 -7 L 472.57 -40.95 L 470.33 -42 L 481.18 -42 L 475.02 -7 Z M 487.06 0 L 494.06 0 L 497.28 -18.48 L 495.04 -19.53 L 501.9 -19.53 L 502.46 0 L 509.46 0 L 508.9 -19.53 L 509.39 -19.53 C 511.42 -19.53 513.17 -21 513.52 -23.03 L 513.66 -23.66 L 517.16 -43.47 L 517.23 -44.03 C 517.79 -46.97 516.04 -49.07 513.1 -49.07 L 493.29 -49 L 495.53 -47.95 Z M 498.75 -26.53 L 501.27 -41.02 L 499.03 -42.07 L 509.88 -42.07 L 507.15 -26.53 Z M 523.46 0 L 530.46 0 L 537.67 -40.95 L 535.43 -42 L 545.58 -42 L 546.84 -49 L 521.99 -49 L 524.23 -47.95 L 523.18 -42 L 530.88 -42 Z M 549.5 0 L 561.82 0 C 564.76 0 567.28 -2.1 567.77 -5.04 L 569.73 -16.1 L 557.62 -35 L 558.67 -40.95 L 556.43 -42 L 567.28 -42 L 566.02 -35 L 573.02 -35 L 574.63 -43.96 C 575.19 -46.9 573.44 -49 570.5 -49 L 558.18 -49 C 555.24 -49 552.72 -46.9 552.23 -43.96 L 550.27 -32.9 L 562.38 -14 L 561.12 -7 L 552.72 -7 L 553.98 -14 L 546.98 -14 L 545.44 -5.6 L 545.37 -5.04 C 544.88 -2.1 546.56 0 549.5 0 Z" stroke-linecap="round" />
</g>
</g>
</g>
</svg>